<svg width="110" height="62" viewBox="0 0 110 62" fill="none" xmlns="http://www.w3.org/2000/svg">
<path d="M10.0908 11.47H15.0928L20.8278 29.8824H16.4295L14.0579 20.5684C13.5836 18.7142 13.023 16.5582 12.5918 14.6178H12.4625C12.0312 16.5582 11.5138 18.7142 11.0395 20.5684L8.62474 29.8824H4.35583L10.0908 11.47Z" fill="#F20F0A"/>
<path d="M102.498 24.4061V24.6217C102.498 24.7942 102.369 24.9236 102.196 24.9236H94.9088C94.7363 24.9236 94.6069 24.7942 94.6069 24.6217V24.4061H91.9335V27.6833C91.9335 28.0282 92.2353 28.3301 92.5803 28.3301H104.654C104.999 28.3301 105.301 28.0282 105.301 27.6833V24.4061H102.498ZM93.7014 26.864C93.7014 26.9502 93.6152 27.0365 93.5289 27.0365H92.3216C92.2353 27.0365 92.1491 26.9502 92.1491 26.864V26.5621C92.1491 26.4759 92.2353 26.3897 92.3216 26.3897H93.5289C93.6152 26.3897 93.7014 26.4759 93.7014 26.5621V26.864ZM93.7014 25.8722C93.7014 25.9585 93.6152 26.0447 93.5289 26.0447H92.3216C92.2353 26.0447 92.1491 25.9585 92.1491 25.8722V25.5704C92.1491 25.4841 92.2353 25.3979 92.3216 25.3979H93.5289C93.6152 25.3979 93.7014 25.4841 93.7014 25.5704V25.8722ZM102.541 27.3383H94.7794C94.7363 27.3383 94.7363 27.3383 94.7363 27.2952C94.7363 27.2521 94.7363 27.2521 94.7794 27.2521H102.541C102.584 27.2521 102.584 27.2521 102.584 27.2952L102.541 27.3383ZM102.541 27.0365H94.7794C94.7363 27.0365 94.7363 27.0365 94.7363 26.9933C94.7363 26.9502 94.7363 26.9502 94.7794 26.9502H102.541C102.584 26.9502 102.584 26.9502 102.584 26.9933C102.584 27.0365 102.541 27.0365 102.541 27.0365ZM102.541 26.7777H94.7794C94.7363 26.7777 94.7363 26.7777 94.7363 26.7346C94.7363 26.6915 94.7363 26.6915 94.7794 26.6915H102.541C102.584 26.6915 102.584 26.6915 102.584 26.7346L102.541 26.7777ZM102.541 26.519H94.7794C94.7363 26.519 94.7363 26.519 94.7363 26.4759C94.7363 26.4328 94.7363 26.4328 94.7794 26.4328H102.541C102.584 26.4328 102.584 26.4328 102.584 26.4759L102.541 26.519ZM102.541 26.2172H94.7794C94.7363 26.2172 94.7363 26.2172 94.7363 26.1741C94.7363 26.1309 94.7363 26.1309 94.7794 26.1309H102.541C102.584 26.1309 102.584 26.1309 102.584 26.1741C102.584 26.2172 102.584 26.2172 102.541 26.2172ZM102.541 25.9585H94.7794C94.7363 25.9585 94.7363 25.9585 94.7363 25.9153C94.7363 25.8722 94.7363 25.8722 94.7794 25.8722H102.541C102.584 25.8722 102.584 25.8722 102.584 25.9153C102.584 25.9153 102.584 25.9585 102.541 25.9585ZM102.541 25.6566H94.7363C94.6932 25.6566 94.6932 25.6566 94.6932 25.6135C94.6932 25.5704 94.6932 25.5704 94.7363 25.5704H102.541C102.584 25.5704 102.584 25.5704 102.584 25.6135C102.584 25.6566 102.584 25.6566 102.541 25.6566ZM102.541 25.3979H94.7363C94.6932 25.3979 94.6932 25.3979 94.6932 25.3548C94.6932 25.3117 94.6932 25.3117 94.7363 25.3117H102.541C102.584 25.3117 102.584 25.3117 102.584 25.3548C102.584 25.3548 102.584 25.3979 102.541 25.3979ZM105.128 26.864C105.128 26.9502 105.042 27.0365 104.956 27.0365H103.748C103.662 27.0365 103.576 26.9502 103.576 26.864V26.5621C103.576 26.4759 103.662 26.3897 103.748 26.3897H104.956C105.042 26.3897 105.128 26.4759 105.128 26.5621V26.864ZM105.128 25.8722C105.128 25.9585 105.042 26.0447 104.956 26.0447H103.748C103.662 26.0447 103.576 25.9585 103.576 25.8722V25.5704C103.576 25.4841 103.662 25.3979 103.748 25.3979H104.956C105.042 25.3979 105.128 25.4841 105.128 25.5704V25.8722Z" fill="#154462"/>
<path d="M102.325 24.4061H94.8222V24.6217C94.8222 24.6648 94.8653 24.708 94.9085 24.708H102.196C102.239 24.708 102.282 24.6648 102.282 24.6217V24.4061H102.325Z" fill="#154462"/>
<path d="M91.9753 21.3015V23.8887C91.9753 24.0612 92.1046 24.2337 92.3202 24.2337H104.998C105.17 24.2337 105.343 24.1043 105.343 23.8887V21.3015C105.343 21.129 105.213 20.9565 104.998 20.9565H92.3202C92.1477 20.9565 91.9753 21.0859 91.9753 21.3015Z" fill="#154462"/>
<path d="M103.833 14.1866H93.4845C92.6652 14.1866 91.9753 14.8766 91.9753 15.6959V20.5253C91.9753 20.6978 92.1046 20.8703 92.3202 20.8703H104.998C105.17 20.8703 105.343 20.7409 105.343 20.5253V15.6527C105.343 14.8334 104.653 14.1866 103.833 14.1866ZM104.653 19.3611C104.653 19.7923 104.308 20.1804 103.833 20.1804H93.3982C92.967 20.1804 92.5789 19.8354 92.5789 19.3611V15.6527C92.5789 15.2215 92.9239 14.8335 93.3982 14.8335H103.833C104.265 14.8335 104.653 15.1784 104.653 15.6527V19.3611Z" fill="#154462"/>
<path d="M103.791 13.9709C103.575 13.0223 102.713 12.3755 101.764 12.3755H95.5549C94.6063 12.3755 93.7439 13.0223 93.5283 13.9709V14.0572H103.877L103.791 13.9709Z" fill="#154462"/>
<path d="M105.514 23.0693V26.9933H106.333V23.8886C106.29 23.4143 105.945 23.0693 105.514 23.0693Z" fill="#154462"/>
<path d="M91.802 23.0693V26.9933H90.9827V23.8886C90.9827 23.4143 91.3708 23.0693 91.802 23.0693Z" fill="#154462"/>
<path d="M105.902 15.9976L104.997 15.6958L104.954 15.8252L105.859 16.127C105.902 16.127 105.945 16.1701 105.945 16.2564V19.7491C105.945 19.7922 105.945 19.8354 105.902 19.8354L105.169 20.3528L105.256 20.4822L105.989 19.9647C106.075 19.9216 106.118 19.8354 106.118 19.7491V16.2564C106.075 16.127 105.989 15.9976 105.902 15.9976Z" fill="#154462"/>
<path d="M106.333 16.6876L105.772 16.5151C105.643 16.472 105.557 16.5582 105.557 16.6876V19.2748C105.557 19.4042 105.643 19.4473 105.772 19.4473L106.333 19.2748C106.419 19.2317 106.505 19.1455 106.505 19.0592V16.9032C106.462 16.817 106.419 16.7307 106.333 16.6876Z" fill="#154462"/>
<path d="M91.4136 15.9976L92.3191 15.6958L92.3622 15.8252L91.4567 16.127C91.4136 16.127 91.3705 16.1701 91.3705 16.2564V19.7491C91.3705 19.7922 91.3705 19.8354 91.4136 19.8354L92.1466 20.3528L92.0604 20.4822L91.3274 19.9647C91.2411 19.9216 91.198 19.8354 91.198 19.7491V16.2564C91.2411 16.127 91.3274 15.9976 91.4136 15.9976Z" fill="#154462"/>
<path d="M90.9831 16.6876L91.5436 16.5151C91.673 16.472 91.7592 16.5582 91.7592 16.6876V19.2748C91.7592 19.4042 91.673 19.4473 91.5436 19.4473L90.9831 19.2748C90.8968 19.2317 90.8106 19.1455 90.8106 19.0592V16.9032C90.8537 16.817 90.8968 16.7307 90.9831 16.6876Z" fill="#154462"/>
<path d="M105.56 27.1658V27.6832C105.56 28.1575 105.172 28.5025 104.741 28.5025H103.404V29.408C103.404 29.7099 103.62 29.9255 103.922 29.9255H105.345C105.647 29.9255 105.862 29.7099 105.862 29.408V27.1658H105.56Z" fill="#154462"/>
<path d="M91.7191 27.6832V27.1658H91.2448V29.408C91.2448 29.7099 91.4604 29.9255 91.7623 29.9255H93.1852C93.4871 29.9255 93.7027 29.7099 93.7027 29.408V28.5025H92.5384C92.1072 28.5456 91.7191 28.1575 91.7191 27.6832Z" fill="#154462"/>
<path d="M105.516 10.8663H91.8035C91.3723 10.8663 91.0273 11.2113 91.0273 11.6425V22.8538L91.3292 22.6813V16.4289L91.5448 16.3426V15.6958C91.5448 14.7472 92.2347 13.971 93.0971 13.7554C93.399 12.6774 94.4339 11.9012 95.555 11.9012H101.764C102.885 11.9012 103.92 12.6343 104.222 13.7554C105.128 13.9279 105.774 14.7472 105.774 15.6958V16.3426L106.249 16.472V11.6856C106.292 11.2544 105.947 10.8663 105.516 10.8663Z" fill="#154462"/>
<path d="M91.5023 19.6629L91.2867 19.6198V22.7244C91.3298 22.6813 91.4161 22.6813 91.4592 22.6813V21.3446C91.4592 21.2152 91.5023 21.0427 91.5886 20.9565C91.5023 20.8271 91.4592 20.6978 91.4592 20.5684V19.6629H91.5023Z" fill="#154462"/>
<path d="M105.774 19.6629V20.4822C105.774 20.6115 105.731 20.784 105.644 20.8703C105.731 20.9996 105.774 21.129 105.774 21.2583V22.5951C105.86 22.5951 105.903 22.6382 105.946 22.6382L106.248 22.8107V19.4042L105.774 19.6629Z" fill="#154462"/>
<path d="M24.1036 11.47H28.2432V26.3896H36.436V29.8824H24.1036V11.47Z" fill="#F20F0A"/>
<path d="M40.1019 26.3896H44.414V14.9627H40.1019V11.47H52.8656V14.9627H48.5535V26.3896H52.8656V29.8824H40.1019V26.3896Z" fill="#F20F0A"/>
<path d="M56.8329 11.47H61.1019L64.9827 20.6115L66.5781 24.6648H66.6644C66.4919 22.7244 66.1038 20.1372 66.1038 17.9811V11.47H70.0709V29.8824H65.802L61.9211 20.6977L60.3257 16.6875H60.2395C60.4119 18.7142 60.8 21.172 60.8 23.3712V29.8824H56.8329V11.47Z" fill="#F20F0A"/>
<path d="M74.5544 11.47H86.7575V14.9627H78.7371V18.6711H85.5501V22.1638H78.7371V26.3896H87.0593V29.8824H74.5544V11.47Z" fill="#F20F0A"/>
<path d="M4.0582 33.1165H7.4647L9.70696 39.2395C9.96568 40.0588 10.2244 40.9212 10.4831 41.7836H10.5694C10.8281 40.9212 11.0868 40.0588 11.3455 39.2395L13.5016 33.1165H16.9081V46.8718H14.0621V41.7836C14.0621 40.4469 14.3208 38.4203 14.4502 37.1266H14.364L13.2428 40.4038L11.3024 45.6645H9.5776L7.63719 40.4038L6.55918 37.1266H6.47294C6.6023 38.4634 6.86102 40.4469 6.86102 41.7836V46.8287H4.0582V33.1165Z" fill="#154462"/>
<path d="M20.0565 40.49V33.1165H23.1612V40.835C23.1612 43.5085 24.0236 44.4571 25.5328 44.4571C27.0851 44.4571 27.9907 43.5085 27.9907 40.835V33.1165H31.0091V40.49C31.0091 45.1039 29.1118 47.1306 25.5759 47.1306C22.0401 47.1306 20.0565 45.1039 20.0565 40.49Z" fill="#154462"/>
<path d="M34.1565 33.1165H38.0374C42.22 33.1165 44.9366 35.1862 44.9366 39.9295C44.9366 44.6727 42.22 46.8718 38.2099 46.8718H34.1565V33.1165ZM37.8649 44.3277C40.1934 44.3277 41.7888 43.1635 41.7888 39.8863C41.7888 36.6092 40.1934 35.5743 37.8649 35.5743H37.2612V44.3277H37.8649Z" fill="#154462"/>
<path d="M50.1542 33.1165H53.8625L58.1746 46.8718H54.8974L53.0864 39.8863C52.6983 38.5065 52.3533 36.8679 51.9652 35.445H51.879C51.534 36.911 51.1891 38.5065 50.801 39.8863L48.9899 46.8718H45.799L50.1542 33.1165ZM48.6881 41.1368H55.3286V43.5516H48.6881V41.1368Z" fill="#154462"/>
<path d="M59.6828 33.1165H62.8737L66.4527 39.9726L67.8325 42.991H67.9188C67.7894 41.5249 67.5307 39.6276 67.5307 37.9891V33.1165H70.506V46.8718H67.2719L63.693 40.0157L62.3131 36.9973H62.2269C62.3562 38.5065 62.6149 40.3607 62.6149 41.9992V46.8718H59.6396V33.1165H59.6828Z" fill="#154462"/>
<path d="M73.0508 40.0588C73.0508 35.488 76.0692 32.8577 79.5619 32.8577C81.3299 32.8577 82.7528 33.677 83.7015 34.6256L82.0629 36.6091C81.373 35.9623 80.6399 35.5311 79.6482 35.5311C77.7509 35.5311 76.2848 37.2128 76.2848 39.9725C76.2848 42.8185 77.6215 44.457 79.605 44.457C80.7262 44.457 81.6317 43.8965 82.2785 43.1634L83.9171 45.1038C82.796 46.4406 81.2436 47.1305 79.4757 47.1305C75.9829 47.0874 73.0508 44.6726 73.0508 40.0588ZM77.1041 50.6664C78.7426 50.5801 79.2601 50.3214 79.2601 49.7177C79.2601 49.2865 78.9151 48.9847 77.6646 48.8122L78.6995 46.7424H80.5106L79.9069 48.1223C80.9849 48.381 81.5023 48.8122 81.5023 49.7177C81.5023 51.1407 79.95 51.7875 77.3197 51.9169L77.1041 50.6664Z" fill="#154462"/>
<path d="M88.5734 33.1165H92.2817L96.5938 46.8718H93.3166L91.5056 39.8863C91.1175 38.5065 90.7725 36.8679 90.3845 35.445H90.2982C89.9532 36.911 89.6083 38.5065 89.2202 39.8863L87.4091 46.8718H84.2182L88.5734 33.1165ZM87.1073 41.1368H93.7478V43.5516H87.1073V41.1368Z" fill="#154462"/>
<path d="M97.1982 45.1039L98.9661 42.991C99.9579 43.8534 101.208 44.4139 102.329 44.4139C103.623 44.4139 104.27 43.8965 104.27 43.0772C104.27 42.2148 103.494 41.913 102.286 41.4386L100.518 40.6625C99.0955 40.1019 97.7587 38.8945 97.7587 36.911C97.7587 34.6256 99.7854 32.8146 102.674 32.8146C104.27 32.8146 105.908 33.4183 107.116 34.6256L105.564 36.566C104.658 35.8761 103.796 35.488 102.718 35.488C101.64 35.488 100.95 35.9192 100.95 36.7385C100.95 37.6009 101.855 37.9028 103.063 38.3771L104.83 39.067C106.512 39.757 107.547 40.8781 107.547 42.8185C107.547 45.1039 105.65 47.0874 102.373 47.0874C100.518 47.0874 98.6211 46.4406 97.1982 45.1039Z" fill="#154462"/>
<path d="M8.32458 21.0858H7.28969L8.66954 22.2932L7.28969 23.5006H8.32458L9.70443 22.2932L8.32458 21.0858Z" fill="#154462"/>
<path d="M16.0431 21.0858H14.577H13.9302H12.9816H12.4641H11.343H10.8687H9.2301L10.5668 22.2932L9.2301 23.5006H10.8687H11.343H12.4641H12.9816H13.9302H14.577H16.0431L17.5954 22.2932L16.0431 21.0858Z" fill="#154462"/>
</svg>
